<?xml version="1.0" encoding="utf-8"?> <!-- Copyright (c) 2020, by Texas Instruments Incorporated. All rights reserved. --> <svg xmlns:svg="http://www.w3.org/2000/svg" xmlns="http://www.w3.org/2000/svg" xmlns:xlink="http://www.w3.org/1999/xlink" version="1.1" id="TI108" x="0px" y="0px" width="210px" height="316px" viewBox="0 0 210 316" style="enable-background:new 0 0 210 316;" xml:space="preserve" class="TI108"> <g id="TI108_CALC_CASE" class="TI108_CALC_CASE"> <path class="ti_calc_case" d="M201,315H9c-4.42,0-8-3.58-8-8V9c0-4.42,3.58-8,8-8h192c4.42,0,8,3.58,8,8v298 C209,311.42,205.42,315,201,315z"></path> </g> <g id="TI108_BRANDING" class="TI108_BRANDING"> <path id="TI108_CALC_LOGO" class="ti_calc_logo" d="M136.62,18.12v1.52l0,0.01l-0.03,1.74h0.01c0,0.4,0,0.7,0.01,0.89 c0.01,0.22,0.02,0.39,0.04,0.52c0.01,0.1,0.02,0.17,0.05,0.23c0.01,0.02,0.01,0.02,0.01,0.02l0.02,0.02c0,0,0,0,0.01,0.01 c0.02,0.01,0.06,0.02,0.13,0.02c0.06,0,0.1,0,0.12,0c0.04,0,0.1-0.01,0.16-0.02h0c0.12-0.02,0.23-0.03,0.33-0.04l0,0 c0.12-0.01,0.22-0.02,0.3-0.02c0.37,0,0.69,0.13,0.96,0.39c0.13,0.12,0.22,0.26,0.29,0.42c0.06,0.15,0.1,0.31,0.1,0.48 c0,0.2-0.04,0.39-0.14,0.56l0,0c-0.09,0.17-0.22,0.32-0.38,0.44c-0.15,0.11-0.32,0.2-0.5,0.25c-0.17,0.05-0.36,0.08-0.55,0.08 c-0.07,0-0.22-0.02-0.46-0.04c-0.12-0.02-0.42-0.05-0.84-0.11l0,0c-0.13-0.02-0.29-0.03-0.48-0.04c-0.16-0.01-0.37-0.01-0.63-0.01 c-0.26,0-0.55,0.01-0.88,0.04c-0.33,0.03-0.73,0.08-1.22,0.14h-0.01c-0.06,0.01-0.13,0.01-0.18,0.02l0,0 c-0.07,0-0.14,0.01-0.19,0.01c-0.19,0-0.38-0.03-0.55-0.08c-0.18-0.05-0.35-0.14-0.5-0.25h0c-0.17-0.12-0.29-0.27-0.38-0.44h0 c-0.09-0.18-0.13-0.36-0.13-0.56c0-0.17,0.03-0.33,0.1-0.49v0c0.06-0.15,0.16-0.29,0.29-0.41c0.13-0.12,0.27-0.22,0.44-0.29 c0.17-0.07,0.34-0.1,0.52-0.1c0.07,0,0.17,0.01,0.29,0.02h0c0.08,0.01,0.19,0.02,0.33,0.04h0.01c0.07,0.01,0.12,0.02,0.16,0.02 c0.02,0,0.07,0,0.13,0c0.06,0,0.1,0,0.12-0.02c0,0,0.01-0.01,0.02-0.02c0.01-0.02,0.03-0.15,0.05-0.39 c0.03-0.3,0.04-0.73,0.04-1.29h0l-0.02-1.74l0-0.01v-1.52l0,0l0.01-1.19h0v-0.8c0-0.34,0-0.58-0.01-0.71 c-0.01-0.16-0.02-0.29-0.02-0.39c-0.01-0.07-0.02-0.13-0.03-0.18c-0.01-0.04-0.02-0.06-0.04-0.1l0,0 c-0.01-0.02-0.03-0.03-0.07-0.05c-0.11-0.04-0.26-0.06-0.47-0.06h-0.6c-0.16,0-0.3,0.02-0.4,0.04l0,0 c-0.06,0.02-0.1,0.04-0.11,0.06c-0.02,0.02-0.04,0.06-0.06,0.1c-0.03,0.09-0.05,0.22-0.05,0.37c0,0.08,0.01,0.21,0.02,0.39 c0.02,0.26,0.05,0.52,0.07,0.78v0c0.01,0.08,0.02,0.16,0.02,0.25l0,0c0.01,0.12,0.01,0.22,0.01,0.28c0,0.24-0.02,0.46-0.06,0.65 h-0.01c-0.05,0.23-0.12,0.43-0.23,0.59l0,0c-0.14,0.2-0.32,0.35-0.56,0.44h0c-0.2,0.08-0.41,0.12-0.66,0.12 c-0.46,0-0.83-0.16-1.09-0.47v0c-0.22-0.27-0.33-0.61-0.33-1.04c0-0.07,0.01-0.2,0.02-0.36c0.01-0.1,0.02-0.27,0.05-0.51h0 c0.02-0.25,0.03-0.44,0.04-0.6c0.01-0.14,0.01-0.29,0.01-0.45c0-0.31-0.02-0.58-0.04-0.84l0,0c-0.03-0.24-0.05-0.42-0.06-0.53 c-0.02-0.16-0.02-0.28-0.02-0.36c0-0.42,0.13-0.77,0.38-1.02c0.27-0.27,0.63-0.41,1.08-0.41c0.23,0,0.65,0.02,1.27,0.05l0,0 c0.55,0.02,1.14,0.04,1.74,0.05c0.51,0.01,1.16,0.02,1.95,0.02c0.73,0,1.37-0.01,1.9-0.02c0.58-0.02,1.15-0.04,1.71-0.08h0 c0.17-0.01,0.34-0.02,0.51-0.03c0.18-0.01,0.31-0.01,0.37-0.01c0.22,0,0.42,0.02,0.59,0.06h0c0.22,0.06,0.41,0.14,0.57,0.27 c0.18,0.14,0.31,0.31,0.39,0.52c0.06,0.17,0.1,0.36,0.1,0.57c0,0.09,0,0.21-0.01,0.36v0c-0.01,0.1-0.02,0.25-0.04,0.43v0 c-0.03,0.26-0.05,0.51-0.07,0.76c-0.02,0.18-0.02,0.31-0.02,0.39c0,0.13,0.01,0.25,0.01,0.36l0,0c0.01,0.13,0.02,0.27,0.04,0.42 v0.01c0.02,0.23,0.04,0.42,0.05,0.56c0.01,0.18,0.02,0.33,0.02,0.43c0,0.96-0.49,1.45-1.47,1.45c-0.49,0-0.87-0.17-1.14-0.5 c-0.22-0.28-0.33-0.64-0.33-1.1c0-0.08,0.01-0.25,0.02-0.51h0c0.02-0.27,0.04-0.57,0.07-0.93v-0.01c0.01-0.13,0.02-0.22,0.02-0.28 c0-0.06,0-0.13,0-0.23c0-0.13-0.02-0.23-0.04-0.3c-0.02-0.04-0.03-0.07-0.05-0.08l0,0c-0.03-0.03-0.09-0.05-0.17-0.07h0 c-0.13-0.03-0.29-0.05-0.49-0.05h-0.54v0c-0.25,0.01-0.43,0.04-0.52,0.11c-0.03,0.02-0.05,0.06-0.05,0.12h0 c-0.03,0.44-0.06,0.92-0.07,1.44c-0.02,0.55-0.03,1.15-0.04,1.81l0,0v0L136.62,18.12L136.62,18.12L136.62,18.12z M145.17,19.66 v-1.54l0-0.01l0.03-1.74h0c0-0.41-0.01-0.71-0.01-0.89c-0.01-0.22-0.02-0.39-0.03-0.52l0,0c-0.02-0.1-0.03-0.18-0.05-0.23v0 c-0.01-0.02-0.01-0.03-0.01-0.04l0,0c0,0-0.02-0.01-0.02-0.01c-0.02-0.01-0.06-0.01-0.13-0.01c-0.05,0-0.09,0-0.11,0 c-0.04,0-0.1,0.01-0.16,0.02h-0.01c-0.13,0.02-0.24,0.04-0.33,0.04c-0.12,0.01-0.22,0.02-0.29,0.02c-0.37,0-0.69-0.13-0.96-0.39 c-0.13-0.12-0.22-0.26-0.29-0.42c-0.06-0.15-0.1-0.32-0.1-0.49c0-0.41,0.17-0.74,0.51-1c0.15-0.12,0.32-0.2,0.51-0.26h0 c0.17-0.05,0.36-0.08,0.55-0.08c0.06,0,0.22,0.02,0.47,0.04c0.12,0.02,0.43,0.05,0.91,0.11h0c0.18,0.02,0.36,0.04,0.55,0.05h0 c0.17,0.01,0.35,0.02,0.53,0.02c0.2,0,0.46-0.02,0.78-0.04c0.34-0.03,0.77-0.08,1.27-0.14l0.01,0c0.05,0,0.11-0.01,0.18-0.01l0,0 c0.07,0,0.14-0.01,0.18-0.01c0.19,0,0.38,0.02,0.55,0.08c0.19,0.05,0.36,0.14,0.51,0.26c0.16,0.12,0.28,0.27,0.37,0.43v0.01 c0.09,0.17,0.13,0.35,0.13,0.55c0,0.17-0.03,0.34-0.1,0.49l0,0c-0.06,0.15-0.16,0.29-0.29,0.42c-0.13,0.12-0.27,0.22-0.43,0.28 c-0.17,0.07-0.34,0.1-0.52,0.1c-0.08,0-0.18-0.01-0.28-0.02c-0.06,0-0.17-0.02-0.32-0.03l-0.02,0c-0.06-0.01-0.12-0.02-0.16-0.02 c-0.02,0-0.07,0-0.13,0c-0.06,0-0.1,0-0.12,0.01v0c0,0-0.01,0.01-0.02,0.02l-0.01,0.01c-0.01,0.01-0.02,0.14-0.05,0.37 c-0.02,0.3-0.04,0.73-0.04,1.29h0l0.02,1.74l0,0.01v1.53l0,0.01l-0.02,1.75h0c0,0.4,0,0.7,0.01,0.89c0.01,0.22,0.02,0.4,0.03,0.53 c0.02,0.09,0.02,0.17,0.05,0.23c0.01,0.02,0,0.02,0,0.02l0.02,0.03l0.01,0c0.02,0.01,0.06,0.02,0.13,0.02c0.06,0,0.1,0,0.12,0 c0.04,0,0.1-0.01,0.16-0.02h0c0.13-0.02,0.24-0.03,0.33-0.04h0.01c0.12-0.01,0.22-0.02,0.3-0.02c0.18,0,0.35,0.03,0.52,0.1v0 c0.16,0.06,0.31,0.16,0.43,0.28c0.13,0.12,0.22,0.27,0.29,0.41l0,0c0.06,0.16,0.1,0.32,0.1,0.49c0,0.41-0.17,0.74-0.51,1 c-0.15,0.11-0.32,0.2-0.51,0.26v0c-0.17,0.05-0.36,0.08-0.55,0.08c-0.07,0-0.23-0.02-0.49-0.05c-0.28-0.04-0.58-0.08-0.89-0.12l0,0 c-0.15-0.02-0.31-0.04-0.47-0.04c-0.15-0.01-0.32-0.02-0.51-0.02c-0.18,0-0.45,0.02-0.78,0.04c-0.36,0.03-0.82,0.08-1.38,0.14l0,0 c-0.05,0.01-0.11,0.01-0.19,0.02l0,0c-0.07,0-0.14,0.01-0.19,0.01c-0.19,0-0.38-0.03-0.55-0.08l0,0c-0.19-0.06-0.35-0.14-0.5-0.26 c-0.16-0.12-0.29-0.27-0.37-0.44l0,0c-0.09-0.17-0.13-0.36-0.13-0.55c0-0.17,0.03-0.33,0.1-0.49c0.06-0.16,0.16-0.3,0.28-0.42 c0.13-0.13,0.27-0.22,0.44-0.28c0.16-0.07,0.34-0.1,0.52-0.1c0.07,0,0.17,0.01,0.29,0.02h0c0.09,0.01,0.2,0.02,0.33,0.04h0 c0.07,0.01,0.13,0.02,0.17,0.02c0.02,0,0.06,0,0.13,0c0.06,0,0.1-0.01,0.12-0.02c0,0,0.01-0.01,0.02-0.02 c0.01-0.02,0.03-0.15,0.06-0.38c0.02-0.3,0.04-0.72,0.04-1.29h0L145.17,19.66L145.17,19.66L145.17,19.66z M152.85,18.85h2.97 c0.18,0,0.36,0.03,0.54,0.09c0.18,0.06,0.34,0.14,0.49,0.26c0.15,0.13,0.27,0.27,0.35,0.44c0.08,0.17,0.12,0.35,0.12,0.54 s-0.04,0.37-0.12,0.54l0,0c-0.08,0.17-0.19,0.31-0.35,0.44c-0.14,0.12-0.3,0.22-0.48,0.28v0c-0.18,0.06-0.36,0.09-0.55,0.09h-2.97 c-0.19,0-0.37-0.03-0.55-0.08h0c-0.19-0.06-0.36-0.15-0.5-0.27c-0.15-0.12-0.27-0.27-0.35-0.45h0c-0.07-0.17-0.11-0.35-0.11-0.54 c0-0.19,0.04-0.37,0.12-0.54c0.08-0.17,0.2-0.31,0.35-0.44c0.14-0.12,0.31-0.21,0.49-0.27h0 C152.48,18.88,152.66,18.85,152.85,18.85L152.85,18.85z M162.66,19.53v-1.35c0-0.79-0.01-1.4-0.01-1.84 c-0.02-0.49-0.03-0.92-0.06-1.28h0c-0.02-0.14-0.03-0.26-0.06-0.34c-0.01-0.04-0.02-0.06-0.02-0.06l-0.01,0 c-0.02-0.02,0,0.03-0.06,0.03c-0.06,0-0.14,0-0.22,0.01c-0.08,0.01-0.18,0.02-0.29,0.03v0c-0.12,0.01-0.23,0.02-0.31,0.03 c-0.11,0.01-0.21,0.01-0.3,0.01c-0.43,0-0.79-0.11-1.05-0.34c-0.29-0.25-0.43-0.58-0.43-0.99c0-0.19,0.03-0.36,0.1-0.52 c0.07-0.16,0.18-0.31,0.33-0.44c0.14-0.12,0.3-0.22,0.48-0.27v0c0.16-0.06,0.34-0.08,0.53-0.08c0.08,0,0.19,0.01,0.35,0.02h0 c0.07,0.01,0.25,0.02,0.5,0.05h0.01c0.07,0.01,0.16,0.01,0.25,0.02c0.07,0,0.19,0,0.37,0c0.22,0,0.4,0,0.52-0.01h0.01 c0.13-0.01,0.27-0.02,0.39-0.03v0c0.16-0.02,0.31-0.04,0.44-0.05l0,0c0.14-0.01,0.26-0.02,0.35-0.02c0.2,0,0.38,0.03,0.55,0.08 c0.22,0.08,0.4,0.2,0.53,0.38c0.1,0.13,0.17,0.31,0.21,0.52c0.03,0.15,0.05,0.33,0.05,0.51l0,0.02l-0.12,3.9h0v2.04l-0.01,0.03 c0,0.06,0,0.21,0,0.47c0.01,0.27,0.02,0.64,0.02,1.14v0.01c0.01,0.51,0.02,0.95,0.02,1.33v0c0,0.17,0.02,0.32,0.04,0.44v0 c0.02,0.05,0.02,0.08,0.03,0.11c0.02,0,0.04,0,0.06,0c0.06,0,0.15,0,0.25-0.01c0.11-0.01,0.24-0.02,0.39-0.04 c0.11-0.02,0.23-0.03,0.34-0.04l0,0c0.11-0.01,0.22-0.02,0.32-0.02c0.2,0,0.39,0.02,0.56,0.07c0.2,0.05,0.37,0.14,0.52,0.25 c0.17,0.13,0.31,0.28,0.39,0.46l0,0c0.09,0.17,0.13,0.36,0.13,0.56c0,0.43-0.17,0.77-0.49,1.02c-0.27,0.2-0.64,0.31-1.08,0.31 c-0.17,0-0.4-0.02-0.69-0.05l0,0c-0.54-0.06-1-0.11-1.4-0.14c-0.38-0.03-0.69-0.04-0.92-0.04c-0.3,0-0.61,0.01-0.93,0.04 c-0.33,0.02-0.67,0.06-1.04,0.11h-0.01c-0.2,0.03-0.4,0.05-0.59,0.07c-0.2,0.02-0.36,0.03-0.47,0.03c-0.42,0-0.77-0.11-1.06-0.33 l0,0c-0.16-0.13-0.29-0.28-0.38-0.45c-0.08-0.17-0.12-0.35-0.12-0.55c0-0.45,0.18-0.8,0.54-1.04c0.29-0.2,0.67-0.29,1.13-0.29 c0.07,0,0.17,0,0.3,0.01c0.09,0,0.21,0.02,0.37,0.03l0,0c0.1,0.01,0.21,0.02,0.35,0.03c0.08,0,0.14,0.01,0.2,0.01 c0.04,0,0.04,0.02,0.05,0.01c0.03-0.03,0.05-0.11,0.06-0.25l0-0.01c0.02-0.19,0.04-0.56,0.05-1.09 C162.66,21.26,162.66,20.53,162.66,19.53L162.66,19.53z M176.04,11.84c0.98,0,1.85,0.19,2.62,0.58c0.78,0.39,1.43,0.96,1.96,1.71h0 c0.24,0.34,0.45,0.73,0.62,1.17c0.17,0.43,0.31,0.9,0.4,1.41c0.06,0.32,0.11,0.66,0.15,1c0.03,0.35,0.05,0.69,0.05,1.02 c0,0.64-0.06,1.27-0.16,1.88c-0.11,0.61-0.28,1.2-0.51,1.76h0c-0.21,0.53-0.49,1-0.84,1.43c-0.35,0.43-0.78,0.8-1.27,1.12l0,0 c-0.48,0.31-0.99,0.54-1.54,0.7c-0.55,0.15-1.12,0.23-1.72,0.23c-1.04,0-1.96-0.22-2.76-0.65c-0.8-0.44-1.46-1.08-1.99-1.93l0,0 c-0.36-0.58-0.63-1.24-0.8-1.99c-0.17-0.73-0.26-1.55-0.26-2.45c0-0.56,0.05-1.11,0.14-1.66c0.09-0.54,0.23-1.07,0.41-1.57v0 c0.2-0.56,0.47-1.07,0.81-1.52c0.34-0.45,0.75-0.85,1.22-1.18c0.48-0.34,1-0.6,1.58-0.77C174.73,11.95,175.35,11.86,176.04,11.84 L176.04,11.84L176.04,11.84z M175.99,14.56c-0.51,0-0.95,0.1-1.3,0.31c-0.36,0.21-0.67,0.54-0.91,0.99l-0.01,0.01 c-0.09,0.16-0.17,0.34-0.24,0.54c-0.08,0.22-0.14,0.47-0.2,0.76c-0.06,0.3-0.1,0.58-0.13,0.86c-0.02,0.27-0.04,0.57-0.04,0.88 c0,0.76,0.07,1.43,0.21,1.98c0.13,0.52,0.32,0.95,0.56,1.28l0,0c0.25,0.33,0.53,0.58,0.84,0.74c0.31,0.15,0.66,0.23,1.05,0.23 c0.49,0,0.92-0.1,1.28-0.31c0.36-0.21,0.68-0.53,0.94-0.97l0,0c0.09-0.16,0.18-0.35,0.27-0.58l0,0c0.08-0.23,0.15-0.5,0.22-0.8 c0.07-0.3,0.11-0.6,0.15-0.91c0.02-0.3,0.05-0.61,0.05-0.94c0-0.69-0.07-1.31-0.2-1.83c-0.13-0.5-0.31-0.93-0.56-1.28v0 c-0.21-0.31-0.48-0.54-0.8-0.69C176.83,14.65,176.44,14.57,175.99,14.56L175.99,14.56L175.99,14.56L175.99,14.56z M185.36,17.96 l-0.01-0.01v0c-0.34-0.28-0.6-0.62-0.77-0.99c-0.17-0.37-0.25-0.78-0.25-1.23c0-0.6,0.15-1.16,0.44-1.67 c0.29-0.49,0.71-0.92,1.27-1.29h0c0.46-0.3,0.96-0.52,1.53-0.67c0.55-0.14,1.16-0.22,1.79-0.22c0.35,0,0.71,0.02,1.07,0.08 c0.35,0.05,0.69,0.13,1,0.23l0,0c0.33,0.1,0.63,0.23,0.9,0.38c0.28,0.15,0.53,0.33,0.75,0.53c0.36,0.33,0.64,0.71,0.82,1.12 c0.18,0.41,0.28,0.86,0.28,1.34c0,0.48-0.09,0.91-0.25,1.29c-0.17,0.4-0.43,0.75-0.78,1.04l0,0c-0.03,0.02-0.06,0.05-0.09,0.07 c0.13,0.08,0.24,0.16,0.36,0.25l0,0c0.52,0.4,0.92,0.86,1.19,1.37c0.27,0.52,0.41,1.09,0.41,1.71c0,0.66-0.15,1.28-0.45,1.84 c-0.29,0.56-0.73,1.05-1.3,1.48l0,0c-0.25,0.19-0.54,0.36-0.85,0.51v0c-0.31,0.14-0.64,0.27-1.01,0.37v0 c-0.37,0.11-0.73,0.18-1.09,0.23c-0.37,0.05-0.75,0.08-1.12,0.08c-0.51,0-1.02-0.05-1.51-0.15c-0.49-0.1-0.96-0.24-1.42-0.43v0 c-0.46-0.19-0.87-0.43-1.22-0.73c-0.36-0.3-0.67-0.64-0.92-1.03l-0.01-0.01c-0.2-0.33-0.36-0.67-0.46-1.04 c-0.1-0.37-0.15-0.75-0.15-1.14c0-0.93,0.27-1.74,0.81-2.41C184.58,18.53,184.93,18.22,185.36,17.96L185.36,17.96z M189.24,14.53 c-0.31,0-0.59,0.03-0.82,0.1h0c-0.22,0.06-0.41,0.16-0.58,0.29l0,0c-0.15,0.11-0.26,0.23-0.32,0.35c-0.06,0.1-0.09,0.22-0.09,0.35 c0,0.16,0.03,0.3,0.1,0.41c0.07,0.12,0.18,0.23,0.35,0.32l0.01,0c0.15,0.09,0.34,0.17,0.55,0.22c0.23,0.05,0.48,0.08,0.76,0.08 c0.36,0,0.67-0.04,0.94-0.11c0.24-0.07,0.44-0.17,0.6-0.29l0,0c0.11-0.09,0.19-0.19,0.25-0.3l-0.01,0 c0.06-0.11,0.08-0.24,0.08-0.39s-0.03-0.27-0.08-0.38c-0.06-0.11-0.16-0.21-0.3-0.3v0c-0.18-0.11-0.38-0.2-0.61-0.26 C189.82,14.56,189.54,14.53,189.24,14.53L189.24,14.53L189.24,14.53z M189.18,19.42c-0.46,0-0.86,0.05-1.19,0.15 c-0.31,0.1-0.57,0.24-0.78,0.43v0c-0.2,0.18-0.34,0.36-0.44,0.57c-0.1,0.2-0.14,0.42-0.14,0.66c0,0.31,0.06,0.59,0.18,0.82 c0.11,0.23,0.3,0.43,0.55,0.6h0c0.24,0.16,0.51,0.29,0.81,0.37c0.31,0.09,0.67,0.13,1.07,0.13c0.52,0,0.96-0.06,1.32-0.19v0 c0.33-0.11,0.59-0.28,0.79-0.5l0.01-0.01c0.16-0.17,0.28-0.36,0.36-0.56c0.08-0.19,0.12-0.4,0.12-0.64c0-0.27-0.06-0.52-0.16-0.73 c-0.11-0.21-0.27-0.41-0.48-0.58l0,0c-0.2-0.17-0.47-0.29-0.78-0.38C190.06,19.47,189.66,19.42,189.18,19.42L189.18,19.42 L189.18,19.42L189.18,19.42z"></path> <g id="TI108_LOGO" class="TI108_LOGO"> <path class="ti_logo" d="M24.75,16.71c0-0.07,0.05-0.88,0.06-1.08c-0.39-0.15-1.49-0.25-2.42-0.23l-0.32,1.34h1l-0.32,1.31h-0.99 l-0.4,1.72c-0.08,0.35,0.1,0.41,0.27,0.41c0.15,0,0.42-0.03,0.53-0.06l-0.31,1.13c0,0-0.8,0.33-1.66,0.33 c-0.55,0-1.02-0.24-1.19-0.82c-0.1-0.3-0.01-0.83,0.05-1.11l0.36-1.6h-1l0.33-1.31h0.98l0.34-1.46 c-0.34-0.05-0.62-0.17-0.74-0.27v-1.84h-3.06v4.39H13c0.11,1.14,1.15,1.41,1.54,2.13c0.24,0.46,0.6,1.56,1.32,1.56 c0.61,0,0.62-0.79,1.35-0.79c0.81,0,1.13,1.36,1.81,2.52c0.52,0.89,1.39,1.51,2.14,1.54c0.6,0.04,0.93-0.17,0.93-0.17 c-0.13-0.28-0.23-0.62-0.23-1.1c0-0.76,0.62-1.47,1.33-1.95c0.94-0.62,1.76-0.87,2.1-0.97c0,0,0.15-0.48,0.2-1.26 c0.04-0.57-0.05-1.03-0.05-1.03S24.74,17.88,24.75,16.71z M20.71,20.1l1.01-4.21H20.5l-0.98,4.21H20.71z M21.34,15.53 c0.38,0,0.67-0.24,0.67-0.61c0-0.39-0.3-0.63-0.67-0.63c-0.36,0-0.68,0.26-0.68,0.63C20.65,15.31,20.96,15.53,21.34,15.53z M50.69,18.3c0-0.5,0.63-0.59,1.04-0.59c0.86,0,1.35,0.35,1.61,0.64l0.14-0.04l-0.39-1.17c0,0-0.09,0.02-0.12,0.04 c-0.04,0.03,0.01,0.17-0.14,0.12c-0.14-0.03-0.56-0.17-1.17-0.17c-1.03,0-2.06,0.52-2.06,1.41c0,1.96,3.1,1.25,3.1,2.38 c0,0.32-0.22,0.65-1.13,0.65c-0.97,0-1.63-0.41-2.03-0.89l-0.16,0.05l0.54,1.42c0,0,0.15-0.02,0.16-0.06 c0.02-0.06,0.04-0.15,0.16-0.11c0.39,0.1,0.82,0.19,1.41,0.19c1.44,0,2.23-0.62,2.23-1.52C53.89,18.7,50.69,19.23,50.69,18.3z M37,21.48c-0.07,0-1.22,0-1.22,0c-0.31,0-0.37-0.06-0.37-0.37v-1.29h1.34c0.51,0,0.63,0.1,0.68,0.34h0.14v-1.33h-0.14 c-0.05,0.23-0.17,0.36-0.68,0.36h-1.34v-1.05c0-0.29,0.07-0.37,0.37-0.37c0,0,0.91,0,1,0c0.54,0,0.94,0.1,1.28,0.51l0.12-0.06 l-0.38-1.05h-4.04v0.15c0.3,0.05,0.48,0.18,0.48,0.63v3.32c0,0.47-0.17,0.6-0.48,0.66v0.14l4.32,0l0.4-1.05l-0.13-0.05 C37.98,21.43,37.48,21.48,37,21.48z M32.93,16.31c1.12,0,1.55,0.02,1.94,0.45l0.13-0.05l-0.39-1.13h-5.62l-0.4,1.13l0.14,0.05 c0.39-0.43,0.82-0.45,1.93-0.45c0.36,0,0.5-0.01,0.5,0.26v4.73c0,0.45-0.2,0.59-0.48,0.63v0.14h2.26v-0.14 c-0.26-0.04-0.5-0.18-0.5-0.63v-4.73C32.43,16.3,32.58,16.31,32.93,16.31z M48.83,21.38l-1.86-4.21h-1l-1.64,3.71 c-0.35,0.78-0.59,0.91-0.59,0.91s-0.18-0.15-0.37-0.4l-1.48-1.98l1.27-1.59c0.28-0.37,0.58-0.48,0.87-0.51v-0.15H42.1v0.15 c0.3,0,0.35,0.23,0.16,0.48l-0.84,1.05l-0.72-0.96c-0.26-0.35-0.07-0.57,0.18-0.57v-0.15h-2.39v0.15 c0.33,0.05,0.47,0.18,0.76,0.53l1.48,1.84l-1.29,1.63c-0.3,0.36-0.66,0.57-0.94,0.6v0.14h1.95v-0.14c-0.22,0-0.42-0.17-0.17-0.48 l0.89-1.14l0.8,1.05c0.32,0.43-0.05,0.57-0.22,0.57v0.14h3.36v-0.14c-0.12,0-0.52-0.08-0.32-0.55l0.3-0.69h2.16l0.29,0.67 c0.22,0.5-0.16,0.58-0.29,0.58v0.14h2.25v-0.14C49.21,21.89,48.93,21.62,48.83,21.38z M45.35,20.1l0.82-1.98L47,20.1H45.35z M57.22,15.79c0.25,0.05,0.48,0.18,0.48,0.65v4.93c0,0.47-0.23,0.61-0.48,0.65v0.15h2.26v-0.15c-0.23-0.04-0.49-0.17-0.49-0.65 v-4.93c0-0.47,0.25-0.6,0.49-0.65v-0.13h-2.26V15.79z M63.71,17.4c0.27,0.06,0.47,0.18,0.47,0.64v1.99l-2.69-2.77H60v0.13 c0.31,0.06,0.47,0.16,0.47,0.62v3.34c0,0.47-0.18,0.59-0.47,0.65v0.15h1.62v-0.15c-0.25-0.05-0.47-0.18-0.47-0.65v-2.67 l3.51,3.53h0.18v-4.18c0-0.46,0.23-0.59,0.47-0.64v-0.13h-1.62V17.4z M84.03,17.4c0.25,0.05,0.48,0.18,0.48,0.64v2.48 c0,0.78-0.64,1.12-1.38,1.12c-0.81,0-1.35-0.33-1.35-1.12v-2.48c0-0.46,0.22-0.6,0.47-0.64v-0.13h-2.1v0.13 c0.24,0.04,0.47,0.18,0.47,0.64v2.49c0,1.39,1.45,1.71,2.33,1.71c0.88,0,2.24-0.33,2.24-1.72l0-2.48c0-0.46,0.22-0.59,0.46-0.64 v-0.13h-1.62V17.4z M70.29,17.27l-0.4,1.12l0.13,0.04c0.48-0.56,0.63-0.58,1.53-0.58c0.22,0,0.3,0.06,0.3,0.37l0,3.14 c0,0.47-0.15,0.58-0.47,0.65v0.15h2.11v-0.15c-0.3-0.06-0.47-0.18-0.47-0.65v-3.14c0-0.31,0.1-0.37,0.31-0.37 c0.9,0,1.02,0.02,1.51,0.58l0.12-0.04l-0.4-1.12H70.29z M66.86,18.36c0-0.51,0.63-0.59,1.04-0.59c0.86,0,1.35,0.35,1.61,0.64 l0.14-0.04l-0.39-1.17c0,0-0.09,0.02-0.12,0.02c-0.04,0.04,0.01,0.18-0.14,0.14c-0.14-0.04-0.56-0.18-1.17-0.18 c-1.04,0-2.06,0.53-2.06,1.43c0,1.96,3.1,1.25,3.1,2.37c0,0.33-0.22,0.66-1.13,0.66c-0.97,0-1.63-0.42-2.03-0.9l-0.16,0.06 l0.54,1.43c0,0,0.15-0.03,0.16-0.06c0.02-0.07,0.04-0.14,0.16-0.12c0.39,0.1,0.82,0.19,1.41,0.19c1.44,0,2.23-0.62,2.23-1.52 C70.06,18.76,66.86,19.29,66.86,18.36z M92.17,21.37l0-3.32c0-0.5,0.22-0.59,0.47-0.63v-0.14h-1.41l-1.9,3.21l-1.74-3.21h-1.66 v0.14c0.25,0.04,0.47,0.13,0.47,0.63v3.32c0,0.47-0.22,0.61-0.47,0.65v0.14h1.63v-0.14c-0.22-0.04-0.5-0.18-0.5-0.65v-2.43 l1.95,3.31h0.12l1.88-3.22v2.33c0,0.47-0.22,0.61-0.47,0.65v0.14h2.12v-0.14C92.43,21.98,92.17,21.84,92.17,21.37z M101.8,17.41 c0.25,0.05,0.47,0.18,0.47,0.64v2l-2.67-2.77h-1.49v0.14c0.31,0.05,0.48,0.15,0.48,0.62v3.34c0,0.47-0.23,0.61-0.48,0.65v0.14 h1.64v-0.14c-0.23-0.04-0.49-0.18-0.49-0.65V18.7l3.5,3.53h0.19v-4.18c0-0.46,0.26-0.59,0.48-0.64v-0.14h-1.63V17.41z M96.46,21.58c-0.06,0-1.22,0-1.22,0c-0.3,0-0.37-0.07-0.37-0.38v-1.28h1.33c0.51,0,0.64,0.1,0.68,0.34h0.14v-1.33h-0.14 c-0.04,0.21-0.17,0.35-0.68,0.35h-1.33v-1.05c0-0.29,0.07-0.37,0.37-0.37c0,0,0.91,0,1,0c0.55,0,0.94,0.1,1.28,0.51l0.13-0.05 l-0.38-1.05h-4.03v0.14c0.25,0.04,0.47,0.18,0.47,0.63v3.31c0,0.47-0.16,0.6-0.47,0.66v0.14h4.32l0.39-1.05l-0.12-0.04 C97.44,21.52,96.95,21.58,96.46,21.58z M93.24,22.16L93.24,22.16L93.24,22.16L93.24,22.16L93.24,22.16z M108.12,17.27h-4.28 l-0.4,1.12l0.13,0.05c0.47-0.56,0.63-0.58,1.53-0.58c0.22,0,0.29,0.06,0.29,0.37h0v3.14c0,0.47-0.15,0.58-0.48,0.65v0.14h2.13 v-0.14c-0.3-0.06-0.48-0.18-0.48-0.65v-3.14c0-0.31,0.09-0.37,0.31-0.37c0.89,0,1.02,0.02,1.51,0.58l0.12-0.05L108.12,17.27z M109.8,18.36c0-0.51,0.64-0.59,1.05-0.59c0.86,0,1.35,0.35,1.61,0.64l0.14-0.04l-0.38-1.17c0,0-0.1,0.02-0.13,0.03 c-0.03,0.04,0.01,0.18-0.14,0.13c-0.13-0.04-0.56-0.18-1.17-0.18c-1.03,0-2.05,0.53-2.06,1.42c0,1.96,3.1,1.25,3.1,2.37 c0,0.33-0.22,0.66-1.13,0.66c-0.97,0-1.63-0.42-2.03-0.9l-0.16,0.05l0.53,1.43c0,0,0.15-0.03,0.17-0.06 c0.03-0.07,0.03-0.15,0.17-0.12c0.38,0.1,0.82,0.19,1.4,0.19c1.45,0,2.23-0.62,2.23-1.51C113,18.76,109.8,19.3,109.8,18.36z M78.36,19.77c0.48-0.09,1.41-0.28,1.41-1.25c0-0.89-0.81-1.25-1.93-1.25h-2.87v0.13c0.25,0.05,0.48,0.18,0.48,0.64v3.32 c0,0.47-0.2,0.6-0.48,0.65v0.15h2.11v-0.15c-0.26-0.05-0.47-0.18-0.47-0.65v-1.33h0.58c1.25,0,0.77,2.17,2.7,2.17 c0.36,0,0.59-0.1,0.7-0.16v-0.12C79.77,21.92,79.69,20.28,78.36,19.77z M77.34,19.44h-0.73v-1.22c0-0.33,0.07-0.38,0.37-0.38 h0.52c0.85,0,1.07,0.42,1.07,0.79C78.58,19.23,77.94,19.44,77.34,19.44z"></path> </g> </g> <g id="TI108_CALCSCREEN" class="TI108_CALCSCREEN"> <g> <rect x="13" y="33" class="ti_lcd_background" width="184" height="42"></rect> </g> </g> <g id="TI108_KEY_NEGATIVE" class="TI108_KEY_NEGATIVE"> <rect x="9" y="79" class="ti_key_background_padding" width="48" height="38"></rect> <path d="M16,115.5c-3.03,0-5.5-2.47-5.5-5.5V86c0-3.03,2.47-5.5,5.5-5.5h34c3.03,0,5.5,2.47,5.5,5.5v24 c0,3.03-2.47,5.5-5.5,5.5H16z"></path> <path class="ti_redKey" d="M50,113H16c-1.66,0-3-1.34-3-3V86c0-1.66,1.34-3,3-3h34c1.66,0,3,1.34,3,3v24C53,111.66,51.66,113,50,113z"></path> <g> <path class="ti_redKey_art_primary" d="M26,94h-2v3h-3v2h3v3h2v-3h3v-2h-3V94z M37,97v2h8v-2H37z M29.12,104.92l1.63,0.08 l6.13-13.92L35.25,91L29.12,104.92z"></path> </g> </g> <g id="TI108_KEY_SQRT" class="TI108_KEY_SQRT"> <rect x="57" y="79" class="ti_key_background_padding" width="48" height="38"></rect> <path d="M64,115.5c-3.03,0-5.5-2.47-5.5-5.5V86c0-3.03,2.47-5.5,5.5-5.5h34c3.03,0,5.5,2.47,5.5,5.5v24 c0,3.03-2.47,5.5-5.5,5.5H64z"></path> <path class="ti_redKey" d="M98,113H64c-1.66,0-3-1.34-3-3V86c0-1.66,1.34-3,3-3h34c1.66,0,3,1.34,3,3v24C101,111.66,99.66,113,98,113z"></path> <polygon class="ti_redKey_art_primary" points="76.42,103.39 72.45,98.1 74.05,96.9 76.08,99.61 79.13,93.5 88.75,93.5 88.75,95.5 80.37,95.5 "></polygon> </g> <g id="TI108_KEY_PERCENT" class="TI108_KEY_PERCENT"> <rect x="105" y="79" class="ti_key_background_padding" width="48" height="38"></rect> <path d="M112,115.5c-3.03,0-5.5-2.47-5.5-5.5V86c0-3.03,2.47-5.5,5.5-5.5h34c3.03,0,5.5,2.47,5.5,5.5v24 c0,3.03-2.47,5.5-5.5,5.5H112z"></path> <path class="ti_redKey" d="M146,113h-34c-1.66,0-3-1.34-3-3V86c0-1.66,1.34-3,3-3h34c1.66,0,3,1.34,3,3v24C149,111.66,147.66,113,146,113 z"></path> <g> <path class="ti_redKey_art_primary" d="M131.25,91l-6.13,13.92l1.63,0.08l6.13-13.92L131.25,91z M133.5,98 c-1.38,0-2.5,1.34-2.5,3s1.12,3,2.5,3c1.38,0,2.5-1.34,2.5-3S134.88,98,133.5,98z M133.5,102.5c-0.47,0-1-0.62-1-1.5 s0.53-1.5,1-1.5c0.47,0,1,0.62,1,1.5S133.97,102.5,133.5,102.5z M127,95c0-1.66-1.12-3-2.5-3c-1.38,0-2.5,1.34-2.5,3 s1.12,3,2.5,3C125.88,98,127,96.66,127,95z M124.5,96.5c-0.47,0-1-0.62-1-1.5s0.53-1.5,1-1.5c0.47,0,1,0.62,1,1.5 S124.97,96.5,124.5,96.5z"></path> </g> </g> <g id="TI108_KEY_DIVIDE" class="TI108_KEY_DIVIDE"> <rect x="153" y="79" class="ti_key_background_padding" width="48" height="38"></rect> <path d="M160,115.5c-3.03,0-5.5-2.47-5.5-5.5V86c0-3.03,2.47-5.5,5.5-5.5h34c3.03,0,5.5,2.47,5.5,5.5v24 c0,3.03-2.47,5.5-5.5,5.5H160z"></path> <path class="ti_redKey" d="M194,113h-34c-1.66,0-3-1.34-3-3V86c0-1.66,1.34-3,3-3h34c1.66,0,3,1.34,3,3v24C197,111.66,195.66,113,194,113 z"></path> <g> <path class="ti_redKey_art_primary" d="M171,97v2h12v-2H171z M177,95c0.83,0,1.5-0.67,1.5-1.5S177.83,92,177,92 c-0.83,0-1.5,0.67-1.5,1.5S176.17,95,177,95z M177,101c-0.83,0-1.5,0.67-1.5,1.5s0.67,1.5,1.5,1.5c0.83,0,1.5-0.67,1.5-1.5 S177.83,101,177,101z"></path> </g> </g> <g id="TI108_KEY_MRC" class="TI108_KEY_MRC"> <rect x="9" y="117" class="ti_key_background_padding" width="48" height="38"></rect> <path d="M16,153.5c-3.03,0-5.5-2.47-5.5-5.5v-24c0-3.03,2.47-5.5,5.5-5.5h34c3.03,0,5.5,2.47,5.5,5.5v24 c0,3.03-2.47,5.5-5.5,5.5H16z"></path> <path class="ti_redKey" d="M50,151H16c-1.66,0-3-1.34-3-3v-24c0-1.66,1.34-3,3-3h34c1.66,0,3,1.34,3,3v24C53,149.66,51.66,151,50,151z"></path> <g> <path class="ti_redKey_art_primary" d="M21.36,131.72l2.17,6.38h0.03l2.05-6.38h2.87V141h-1.91v-6.58h-0.03L24.28,141H22.7 l-2.28-6.51H20.4V141h-1.91v-9.28H21.36z M35.29,131.72c0.42,0,0.79,0.07,1.12,0.2c0.33,0.13,0.62,0.32,0.86,0.55 c0.24,0.23,0.42,0.5,0.55,0.81c0.12,0.31,0.19,0.64,0.19,1c0,0.55-0.12,1.02-0.34,1.42s-0.6,0.7-1.12,0.91v0.03 c0.25,0.07,0.46,0.18,0.62,0.32c0.16,0.14,0.3,0.31,0.4,0.51c0.1,0.2,0.18,0.41,0.23,0.64c0.05,0.23,0.08,0.47,0.1,0.7 c0.01,0.15,0.02,0.32,0.03,0.52c0.01,0.2,0.02,0.4,0.04,0.61s0.06,0.41,0.1,0.59c0.05,0.19,0.12,0.34,0.21,0.47h-2.04 c-0.11-0.29-0.18-0.65-0.21-1.05c-0.03-0.41-0.06-0.8-0.12-1.17c-0.07-0.49-0.22-0.84-0.44-1.07s-0.59-0.34-1.11-0.34h-2.04V141 h-2.04v-9.28H35.29z M34.56,135.92c0.47,0,0.82-0.1,1.05-0.31c0.23-0.21,0.35-0.55,0.35-1.01c0-0.45-0.12-0.78-0.35-0.98 c-0.23-0.2-0.58-0.31-1.05-0.31h-2.24v2.61H34.56z M45.62,134.19c-0.12-0.2-0.27-0.37-0.45-0.51c-0.18-0.15-0.39-0.26-0.62-0.34 c-0.23-0.08-0.47-0.12-0.72-0.12c-0.46,0-0.85,0.09-1.17,0.27c-0.32,0.18-0.58,0.42-0.78,0.71c-0.2,0.3-0.34,0.64-0.44,1.02 c-0.09,0.38-0.14,0.78-0.14,1.18c0,0.39,0.04,0.77,0.14,1.14c0.09,0.37,0.24,0.7,0.44,1c0.2,0.29,0.46,0.53,0.78,0.71 c0.32,0.18,0.71,0.27,1.17,0.27c0.62,0,1.11-0.19,1.46-0.57c0.35-0.38,0.57-0.88,0.64-1.51h1.98c-0.05,0.58-0.19,1.11-0.4,1.57 c-0.22,0.47-0.5,0.87-0.86,1.2c-0.36,0.33-0.77,0.58-1.25,0.75c-0.48,0.17-1,0.26-1.57,0.26c-0.71,0-1.35-0.12-1.92-0.37 c-0.57-0.25-1.05-0.59-1.44-1.02c-0.39-0.43-0.69-0.94-0.9-1.53s-0.31-1.21-0.31-1.89c0-0.69,0.1-1.34,0.31-1.93 s0.51-1.11,0.9-1.55s0.87-0.79,1.44-1.04c0.57-0.25,1.21-0.38,1.92-0.38c0.51,0,1,0.07,1.45,0.22s0.86,0.36,1.22,0.64 c0.36,0.28,0.66,0.63,0.89,1.05c0.23,0.42,0.38,0.89,0.44,1.43h-1.98C45.82,134.6,45.74,134.39,45.62,134.19z"></path> </g> </g> <g id="TI108_KEY_MMINUS" class="TI108_KEY_MMINUS"> <rect x="57" y="117" class="ti_key_background_padding" width="48" height="38"></rect> <path d="M64,153.5c-3.03,0-5.5-2.47-5.5-5.5v-24c0-3.03,2.47-5.5,5.5-5.5h34c3.03,0,5.5,2.47,5.5,5.5v24 c0,3.03-2.47,5.5-5.5,5.5H64z"></path> <path class="ti_redKey" d="M98,151H64c-1.66,0-3-1.34-3-3v-24c0-1.66,1.34-3,3-3h34c1.66,0,3,1.34,3,3v24C101,149.66,99.66,151,98,151z"></path> <g> <path class="ti_redKey_art_primary" d="M75.57,131.72l2.17,6.38h0.03l2.05-6.38h2.87V141h-1.91v-6.58h-0.03L78.48,141h-1.57 l-2.28-6.51h-0.03V141H72.7v-9.28H75.57z M89.34,135.66v1.59h-4.89v-1.59H89.34z"></path> </g> </g> <g id="TI108_KEY_MPLUS" class="TI108_KEY_MPLUS"> <rect x="105" y="117" class="ti_key_background_padding" width="48" height="38"></rect> <path d="M112,153.5c-3.03,0-5.5-2.47-5.5-5.5v-24c0-3.03,2.47-5.5,5.5-5.5h34c3.03,0,5.5,2.47,5.5,5.5v24 c0,3.03-2.47,5.5-5.5,5.5H112z"></path> <path class="ti_redKey" d="M146,151h-34c-1.66,0-3-1.34-3-3v-24c0-1.66,1.34-3,3-3h34c1.66,0,3,1.34,3,3v24 C149,149.66,147.66,151,146,151z"></path> <g> <path class="ti_redKey_art_primary" d="M122.97,131.72l2.17,6.38h0.03l2.05-6.38h2.87V141h-1.91v-6.58h-0.03l-2.28,6.58h-1.57 l-2.28-6.51h-0.03V141h-1.91v-9.28H122.97z M138.18,136.02v1.39h-2.59V140h-1.39v-2.59h-2.59v-1.39h2.59v-2.59h1.39v2.59H138.18z"></path> </g> </g> <g id="TI108_KEY_MULTIPLY" class="TI108_KEY_MULTIPLY"> <rect x="153" y="117" class="ti_key_background_padding" width="48" height="38"></rect> <path d="M160,153.5c-3.03,0-5.5-2.47-5.5-5.5v-24c0-3.03,2.47-5.5,5.5-5.5h34c3.03,0,5.5,2.47,5.5,5.5v24 c0,3.03-2.47,5.5-5.5,5.5H160z"></path> <path class="ti_redKey" d="M194,151h-34c-1.66,0-3-1.34-3-3v-24c0-1.66,1.34-3,3-3h34c1.66,0,3,1.34,3,3v24 C197,149.66,195.66,151,194,151z"></path> <polygon class="ti_redKey_art_primary" points="181.95,139.54 178.41,136 181.95,132.46 180.54,131.05 177,134.59 173.46,131.05 172.05,132.46 175.59,136 172.05,139.54 173.46,140.95 177,137.41 180.54,140.95 "></polygon> </g> <g id="TI108_KEY_7" class="TI108_KEY_7"> <rect x="9" y="155" class="ti_key_background_padding" width="48" height="38"></rect> <path d="M16,191.5c-3.03,0-5.5-2.47-5.5-5.5v-24c0-3.03,2.47-5.5,5.5-5.5h34c3.03,0,5.5,2.47,5.5,5.5v24 c0,3.03-2.47,5.5-5.5,5.5H16z"></path> <path class="ti_numpadKey" d="M50,189H16c-1.66,0-3-1.34-3-3v-24c0-1.66,1.34-3,3-3h34c1.66,0,3,1.34,3,3v24C53,187.66,51.66,189,50,189z"></path> <g> <path class="ti_numpadKey_art_primary" d="M35.55,172.72c-0.51,0.84-0.94,1.73-1.28,2.68c-0.34,0.95-0.61,1.91-0.79,2.88 c-0.19,0.97-0.29,1.88-0.3,2.72h-2.74c0.14-1.88,0.58-3.7,1.32-5.44c0.74-1.74,1.71-3.34,2.91-4.79H28.7v-2.38h8.6v2.2 C36.64,171.17,36.06,171.88,35.55,172.72z"></path> </g> </g> <g id="TI108_KEY_8" class="TI108_KEY_8"> <rect x="57" y="155" class="ti_key_background_padding" width="48" height="38"></rect> <path d="M64,191.5c-3.03,0-5.5-2.47-5.5-5.5v-24c0-3.03,2.47-5.5,5.5-5.5h34c3.03,0,5.5,2.47,5.5,5.5v24 c0,3.03-2.47,5.5-5.5,5.5H64z"></path> <path class="ti_numpadKey" d="M98,189H64c-1.66,0-3-1.34-3-3v-24c0-1.66,1.34-3,3-3h34c1.66,0,3,1.34,3,3v24C101,187.66,99.66,189,98,189z"></path> <g> <path class="ti_numpadKey_art_primary" d="M77.15,170.09c0.25-0.43,0.58-0.79,0.98-1.08s0.86-0.5,1.36-0.65 c0.5-0.14,1.01-0.22,1.53-0.22c0.78,0,1.44,0.12,1.98,0.36c0.54,0.24,0.97,0.53,1.3,0.87s0.57,0.71,0.71,1.1 c0.14,0.39,0.22,0.74,0.22,1.05c0,0.62-0.15,1.17-0.46,1.64c-0.31,0.47-0.77,0.8-1.38,1.01v0.04c0.76,0.17,1.34,0.53,1.75,1.07 c0.41,0.55,0.61,1.21,0.61,2.01c0,0.67-0.13,1.25-0.41,1.75c-0.27,0.49-0.63,0.9-1.07,1.22c-0.44,0.32-0.95,0.57-1.51,0.73 c-0.56,0.16-1.14,0.24-1.73,0.24c-0.61,0-1.2-0.08-1.77-0.23c-0.57-0.15-1.08-0.39-1.53-0.71c-0.45-0.32-0.81-0.73-1.08-1.22 c-0.27-0.49-0.41-1.08-0.41-1.76c0-0.8,0.21-1.48,0.62-2.02s1-0.9,1.75-1.08v-0.04c-0.61-0.17-1.07-0.49-1.39-0.95 c-0.31-0.47-0.47-1.01-0.47-1.64C76.77,171.02,76.9,170.52,77.15,170.09z M78.98,178.07c0.12,0.26,0.28,0.49,0.48,0.67 c0.2,0.19,0.43,0.33,0.71,0.43c0.28,0.1,0.56,0.15,0.86,0.15c0.31,0,0.6-0.05,0.85-0.15c0.26-0.1,0.49-0.25,0.68-0.43 c0.2-0.19,0.35-0.41,0.46-0.67c0.11-0.26,0.16-0.55,0.16-0.86c0-0.3-0.06-0.57-0.17-0.82c-0.11-0.25-0.27-0.46-0.47-0.64 c-0.2-0.18-0.43-0.32-0.68-0.41s-0.54-0.14-0.84-0.14c-0.62,0-1.15,0.17-1.58,0.51s-0.65,0.84-0.65,1.48 C78.8,177.51,78.86,177.8,78.98,178.07z M79.67,173.05c0.38,0.28,0.83,0.42,1.35,0.42c0.54,0,0.99-0.14,1.35-0.42 c0.36-0.28,0.54-0.69,0.54-1.23c0-0.17-0.02-0.35-0.07-0.55c-0.05-0.2-0.14-0.39-0.28-0.57c-0.14-0.18-0.33-0.33-0.58-0.45 c-0.25-0.12-0.57-0.18-0.96-0.18c-0.25,0-0.5,0.04-0.73,0.12s-0.44,0.19-0.62,0.33c-0.18,0.14-0.32,0.32-0.42,0.54 c-0.1,0.22-0.15,0.47-0.15,0.76C79.09,172.36,79.28,172.77,79.67,173.05z"></path> </g> </g> <g id="TI108_KEY_9" class="TI108_KEY_9"> <rect x="105" y="155" class="ti_key_background_padding" width="48" height="38"></rect> <path d="M112,191.5c-3.03,0-5.5-2.47-5.5-5.5v-24c0-3.03,2.47-5.5,5.5-5.5h34c3.03,0,5.5,2.47,5.5,5.5v24 c0,3.03-2.47,5.5-5.5,5.5H112z"></path> <path class="ti_numpadKey" d="M146,189h-34c-1.66,0-3-1.34-3-3v-24c0-1.66,1.34-3,3-3h34c1.66,0,3,1.34,3,3v24 C149,187.66,147.66,189,146,189z"></path> <g> <path class="ti_numpadKey_art_primary" d="M127.6,178.86c0.3,0.31,0.67,0.47,1.12,0.47c0.47,0,0.85-0.13,1.15-0.41 c0.3-0.27,0.54-0.6,0.72-0.99c0.18-0.39,0.31-0.81,0.39-1.25c0.08-0.44,0.13-0.84,0.15-1.19l-0.04-0.04 c-0.35,0.5-0.76,0.86-1.22,1.08s-1.01,0.32-1.62,0.32c-0.54,0-1.07-0.12-1.58-0.35c-0.52-0.23-0.95-0.55-1.31-0.94 c-0.34-0.38-0.58-0.82-0.74-1.31c-0.16-0.49-0.23-0.99-0.23-1.49c0-0.65,0.1-1.25,0.32-1.81c0.21-0.56,0.51-1.04,0.9-1.46 s0.86-0.74,1.4-0.98c0.54-0.24,1.14-0.36,1.8-0.36c0.96,0,1.75,0.19,2.37,0.57c0.62,0.38,1.11,0.88,1.48,1.49s0.63,1.32,0.77,2.1 c0.14,0.78,0.22,1.57,0.22,2.36c0,0.78-0.09,1.56-0.27,2.34c-0.18,0.78-0.47,1.49-0.86,2.12c-0.4,0.63-0.91,1.14-1.53,1.53 c-0.62,0.39-1.39,0.58-2.29,0.58c-0.54,0-1.04-0.08-1.51-0.23c-0.47-0.15-0.88-0.38-1.24-0.67c-0.36-0.3-0.65-0.67-0.88-1.1 c-0.23-0.43-0.38-0.92-0.45-1.48h2.43C127.1,178.18,127.3,178.54,127.6,178.86z M129.76,174.74c0.25-0.13,0.46-0.3,0.63-0.51 c0.17-0.22,0.29-0.46,0.38-0.75s0.13-0.58,0.13-0.89c0-0.29-0.04-0.57-0.13-0.85s-0.22-0.53-0.4-0.76 c-0.17-0.22-0.39-0.4-0.64-0.53s-0.54-0.2-0.86-0.2c-0.3,0-0.57,0.07-0.81,0.2c-0.24,0.13-0.44,0.31-0.61,0.52 c-0.17,0.22-0.29,0.46-0.38,0.74c-0.08,0.28-0.13,0.56-0.13,0.85c0,0.3,0.04,0.59,0.12,0.87c0.08,0.28,0.2,0.53,0.35,0.76 c0.16,0.22,0.36,0.4,0.6,0.54c0.25,0.14,0.53,0.21,0.86,0.21C129.2,174.93,129.5,174.87,129.76,174.74z"></path> </g> </g> <g id="TI108_KEY_SUBTRACT" class="TI108_KEY_SUBTRACT"> <rect x="153" y="155" class="ti_key_background_padding" width="48" height="38"></rect> <path d="M160,191.5c-3.03,0-5.5-2.47-5.5-5.5v-24c0-3.03,2.47-5.5,5.5-5.5h34c3.03,0,5.5,2.47,5.5,5.5v24 c0,3.03-2.47,5.5-5.5,5.5H160z"></path> <path class="ti_redKey" d="M194,189h-34c-1.66,0-3-1.34-3-3v-24c0-1.66,1.34-3,3-3h34c1.66,0,3,1.34,3,3v24 C197,187.66,195.66,189,194,189z"></path> <rect x="176" y="168" transform="matrix(4.365581e-11 -1 1 4.365581e-11 3 351)" class="ti_redKey_art_primary" width="2" height="12"></rect> </g> <g id="TI108_KEY_4" class="TI108_KEY_4"> <rect x="9" y="193" class="ti_key_background_padding" width="48" height="38"></rect> <path d="M16,229.5c-3.03,0-5.5-2.47-5.5-5.5v-24c0-3.03,2.47-5.5,5.5-5.5h34c3.03,0,5.5,2.47,5.5,5.5v24 c0,3.03-2.47,5.5-5.5,5.5H16z"></path> <path class="ti_numpadKey" d="M50,227H16c-1.66,0-3-1.34-3-3v-24c0-1.66,1.34-3,3-3h34c1.66,0,3,1.34,3,3v24C53,225.66,51.66,227,50,227z"></path> <g> <path class="ti_numpadKey_art_primary" d="M28.28,216.08v-2.34l5.47-7.34h2.29v7.58h1.67v2.11h-1.67V219h-2.43v-2.92H28.28z M33.56,209.6l-3.26,4.37h3.31v-4.37H33.56z"></path> </g> </g> <g id="TI108_KEY_5" class="TI108_KEY_5"> <rect x="57" y="193" class="ti_key_background_padding" width="48" height="38"></rect> <path d="M64,229.5c-3.03,0-5.5-2.47-5.5-5.5v-24c0-3.03,2.47-5.5,5.5-5.5h34c3.03,0,5.5,2.47,5.5,5.5v24 c0,3.03-2.47,5.5-5.5,5.5H64z"></path> <path class="ti_numpadKey" d="M98,227H64c-1.66,0-3-1.34-3-3v-24c0-1.66,1.34-3,3-3h34c1.66,0,3,1.34,3,3v24C101,225.66,99.66,227,98,227z"></path> <g> <path class="ti_numpadKey_art_primary" d="M79.79,208.5l-0.5,2.86l0.04,0.04c0.35-0.35,0.72-0.6,1.12-0.75 c0.4-0.15,0.85-0.23,1.35-0.23c0.62,0,1.18,0.11,1.66,0.34c0.48,0.23,0.88,0.53,1.21,0.92c0.33,0.38,0.58,0.84,0.76,1.36 c0.17,0.52,0.26,1.08,0.26,1.67c0,0.65-0.13,1.25-0.38,1.81c-0.25,0.56-0.59,1.04-1.02,1.45c-0.43,0.41-0.92,0.72-1.49,0.95 c-0.56,0.22-1.16,0.33-1.8,0.32c-0.61,0-1.2-0.08-1.75-0.24s-1.05-0.41-1.49-0.75c-0.43-0.34-0.78-0.75-1.04-1.25 c-0.26-0.5-0.39-1.08-0.4-1.74h2.56c0.06,0.58,0.28,1.04,0.65,1.38c0.37,0.34,0.85,0.51,1.42,0.51c0.34,0,0.64-0.07,0.91-0.21 c0.27-0.14,0.5-0.32,0.68-0.54c0.19-0.22,0.33-0.48,0.43-0.77c0.1-0.29,0.15-0.6,0.15-0.91c0-0.32-0.05-0.63-0.14-0.92 c-0.1-0.29-0.24-0.54-0.43-0.76c-0.19-0.22-0.42-0.38-0.68-0.5c-0.26-0.12-0.57-0.18-0.92-0.18c-0.46,0-0.83,0.08-1.12,0.24 c-0.29,0.16-0.56,0.42-0.81,0.77h-2.3l1.24-6.97H85v2.11H79.79z"></path> </g> </g> <g id="TI108_KEY_6" class="TI108_KEY_6"> <rect x="105" y="193" class="ti_key_background_padding" width="48" height="38"></rect> <path d="M112,229.5c-3.03,0-5.5-2.47-5.5-5.5v-24c0-3.03,2.47-5.5,5.5-5.5h34c3.03,0,5.5,2.47,5.5,5.5v24 c0,3.03-2.47,5.5-5.5,5.5H112z"></path> <path class="ti_numpadKey" d="M146,227h-34c-1.66,0-3-1.34-3-3v-24c0-1.66,1.34-3,3-3h34c1.66,0,3,1.34,3,3v24 C149,225.66,147.66,227,146,227z"></path> <g> <path class="ti_numpadKey_art_primary" d="M130.4,208.54c-0.3-0.31-0.67-0.47-1.12-0.47c-0.46,0-0.84,0.13-1.14,0.4 c-0.31,0.27-0.55,0.6-0.73,0.99c-0.18,0.39-0.31,0.81-0.4,1.25c-0.08,0.44-0.13,0.84-0.14,1.19l0.04,0.04 c0.35-0.5,0.76-0.86,1.22-1.08c0.47-0.22,1.01-0.32,1.62-0.32c0.54,0,1.07,0.12,1.58,0.35c0.52,0.23,0.95,0.55,1.31,0.95 c0.34,0.38,0.58,0.82,0.74,1.31c0.16,0.49,0.23,0.99,0.23,1.49c0,0.65-0.11,1.25-0.31,1.81c-0.21,0.56-0.51,1.04-0.9,1.46 s-0.86,0.74-1.4,0.97c-0.54,0.23-1.14,0.35-1.8,0.35c-0.95,0-1.73-0.19-2.36-0.57c-0.62-0.38-1.12-0.87-1.49-1.49 c-0.37-0.61-0.63-1.3-0.77-2.08c-0.14-0.77-0.22-1.56-0.22-2.37c0-0.78,0.09-1.56,0.27-2.34c0.18-0.78,0.47-1.49,0.86-2.12 c0.4-0.63,0.91-1.14,1.53-1.54c0.62-0.4,1.39-0.59,2.29-0.59c0.54,0,1.04,0.08,1.51,0.23c0.47,0.16,0.88,0.38,1.24,0.67 c0.36,0.29,0.65,0.66,0.88,1.09c0.23,0.43,0.38,0.93,0.45,1.49h-2.43C130.9,209.22,130.7,208.85,130.4,208.54z M128.25,212.65 c-0.26,0.13-0.47,0.3-0.64,0.51s-0.29,0.46-0.38,0.75s-0.13,0.58-0.13,0.89c0,0.29,0.04,0.57,0.13,0.86s0.22,0.53,0.4,0.76 c0.17,0.22,0.39,0.4,0.64,0.53s0.54,0.2,0.86,0.2c0.31,0,0.58-0.07,0.82-0.2c0.23-0.13,0.43-0.31,0.6-0.52 c0.17-0.22,0.29-0.46,0.38-0.74c0.08-0.28,0.13-0.56,0.13-0.85c0-0.3-0.04-0.59-0.12-0.87c-0.08-0.28-0.2-0.53-0.35-0.76 c-0.16-0.22-0.36-0.4-0.6-0.54c-0.25-0.14-0.53-0.21-0.85-0.21C128.81,212.46,128.51,212.53,128.25,212.65z"></path> </g> </g> <g id="TI108_KEY_ADD" class="TI108_KEY_ADD"> <rect x="153" y="193" class="ti_key_background_padding" width="48" height="38"></rect> <path d="M160,229.5c-3.03,0-5.5-2.47-5.5-5.5v-24c0-3.03,2.47-5.5,5.5-5.5h34c3.03,0,5.5,2.47,5.5,5.5v24 c0,3.03-2.47,5.5-5.5,5.5H160z"></path> <path class="ti_redKey" d="M194,227h-34c-1.66,0-3-1.34-3-3v-24c0-1.66,1.34-3,3-3h34c1.66,0,3,1.34,3,3v24 C197,225.66,195.66,227,194,227z"></path> <polygon class="ti_redKey_art_primary" points="183,211 178,211 178,206 176,206 176,211 171,211 171,213 176,213 176,218 178,218 178,213 183,213 "></polygon> </g> <g id="TI108_KEY_1" class="TI108_KEY_1"> <rect x="9" y="231" class="ti_key_background_padding" width="48" height="38"></rect> <path d="M16,267.5c-3.03,0-5.5-2.47-5.5-5.5v-24c0-3.03,2.47-5.5,5.5-5.5h34c3.03,0,5.5,2.47,5.5,5.5v24 c0,3.03-2.47,5.5-5.5,5.5H16z"></path> <path class="ti_numpadKey" d="M50,265H16c-1.66,0-3-1.34-3-3v-24c0-1.66,1.34-3,3-3h34c1.66,0,3,1.34,3,3v24C53,263.66,51.66,265,50,265z"></path> <g> <path class="ti_numpadKey_art_primary" d="M32.5,257v-8.17h-3.17v-1.93c0.44,0.01,0.87-0.02,1.29-0.1s0.79-0.22,1.12-0.41 c0.33-0.2,0.61-0.46,0.84-0.78c0.23-0.32,0.38-0.73,0.45-1.21h2.03V257H32.5z"></path> </g> </g> <g id="TI108_KEY_2" class="TI108_KEY_2"> <rect x="57" y="231" class="ti_key_background_padding" width="48" height="38"></rect> <path d="M64,267.5c-3.03,0-5.5-2.47-5.5-5.5v-24c0-3.03,2.47-5.5,5.5-5.5h34c3.03,0,5.5,2.47,5.5,5.5v24 c0,3.03-2.47,5.5-5.5,5.5H64z"></path> <path class="ti_numpadKey" d="M98,265H64c-1.66,0-3-1.34-3-3v-24c0-1.66,1.34-3,3-3h34c1.66,0,3,1.34,3,3v24C101,263.66,99.66,265,98,265z"></path> <g> <path class="ti_numpadKey_art_primary" d="M76.91,247.23c0.19-0.62,0.48-1.16,0.86-1.62c0.38-0.46,0.87-0.82,1.45-1.08 c0.58-0.26,1.25-0.39,2.01-0.39c0.58,0,1.12,0.09,1.65,0.27c0.52,0.18,0.98,0.44,1.38,0.77c0.4,0.34,0.71,0.75,0.95,1.24 c0.23,0.49,0.35,1.04,0.35,1.66c0,0.64-0.1,1.18-0.31,1.64c-0.2,0.46-0.47,0.86-0.81,1.22c-0.34,0.35-0.72,0.67-1.14,0.96 s-0.85,0.57-1.29,0.85c-0.43,0.28-0.85,0.58-1.26,0.91s-0.77,0.7-1.08,1.13h5.96v2.2h-9.25c0-0.73,0.1-1.37,0.32-1.91 c0.21-0.54,0.5-1.02,0.85-1.45c0.36-0.43,0.78-0.82,1.27-1.18c0.49-0.36,1-0.73,1.54-1.1c0.28-0.19,0.57-0.39,0.88-0.58 c0.31-0.2,0.6-0.42,0.85-0.66s0.47-0.51,0.65-0.81s0.26-0.64,0.26-1.03c0-0.61-0.18-1.09-0.53-1.43 c-0.35-0.34-0.81-0.51-1.36-0.51c-0.37,0-0.69,0.09-0.95,0.26s-0.46,0.4-0.62,0.68s-0.27,0.59-0.33,0.94 c-0.07,0.34-0.1,0.68-0.1,1.02h-2.45C76.64,248.52,76.72,247.85,76.91,247.23z"></path> </g> </g> <g id="TI108_KEY_3" class="TI108_KEY_3"> <rect x="105" y="231" class="ti_key_background_padding" width="48" height="38"></rect> <path d="M112,267.5c-3.03,0-5.5-2.47-5.5-5.5v-24c0-3.03,2.47-5.5,5.5-5.5h34c3.03,0,5.5,2.47,5.5,5.5v24 c0,3.03-2.47,5.5-5.5,5.5H112z"></path> <path class="ti_numpadKey" d="M146,265h-34c-1.66,0-3-1.34-3-3v-24c0-1.66,1.34-3,3-3h34c1.66,0,3,1.34,3,3v24 C149,263.66,147.66,265,146,265z"></path> <g> <path class="ti_numpadKey_art_primary" d="M128.98,249.49c0.31-0.02,0.6-0.09,0.87-0.21c0.27-0.11,0.49-0.28,0.67-0.5 c0.17-0.22,0.26-0.5,0.26-0.86c0-0.54-0.18-0.95-0.54-1.24c-0.36-0.29-0.77-0.43-1.24-0.43c-0.65,0-1.14,0.21-1.47,0.64 c-0.33,0.43-0.49,0.96-0.48,1.61h-2.43c0.02-0.65,0.14-1.24,0.35-1.77c0.21-0.53,0.5-0.99,0.88-1.38 c0.38-0.38,0.83-0.68,1.36-0.89s1.12-0.31,1.76-0.31c0.5,0,1.01,0.07,1.51,0.22s0.96,0.38,1.36,0.67c0.4,0.3,0.73,0.67,0.98,1.1 c0.25,0.43,0.38,0.93,0.38,1.49c0,0.61-0.15,1.15-0.44,1.62c-0.29,0.47-0.74,0.79-1.32,0.95v0.04c0.7,0.16,1.24,0.49,1.64,1.01 c0.4,0.52,0.59,1.13,0.59,1.85c0,0.66-0.13,1.25-0.39,1.76c-0.26,0.52-0.6,0.95-1.04,1.3c-0.43,0.35-0.93,0.61-1.49,0.79 c-0.56,0.18-1.15,0.27-1.76,0.27c-0.71,0-1.35-0.1-1.93-0.31c-0.58-0.2-1.08-0.5-1.49-0.89c-0.41-0.39-0.72-0.87-0.95-1.43 c-0.22-0.56-0.33-1.21-0.31-1.94h2.43c0.01,0.34,0.07,0.66,0.16,0.96c0.1,0.31,0.23,0.57,0.41,0.79c0.18,0.22,0.41,0.4,0.67,0.53 c0.27,0.13,0.59,0.2,0.96,0.2c0.58,0,1.06-0.18,1.46-0.53c0.4-0.35,0.59-0.84,0.59-1.45c0-0.48-0.09-0.85-0.28-1.1 c-0.19-0.25-0.42-0.44-0.71-0.55c-0.29-0.11-0.6-0.18-0.95-0.2c-0.34-0.02-0.67-0.03-0.98-0.03v-1.8 C128.38,249.52,128.67,249.52,128.98,249.49z"></path> </g> </g> <g id="TI108_KEY_ONCLEAR" class="TI108_KEY_ONCLEAR"> <rect x="9" y="269" class="ti_key_background_padding" width="48" height="38"></rect> <path d="M16,305.5c-3.03,0-5.5-2.47-5.5-5.5v-24c0-3.03,2.47-5.5,5.5-5.5h34c3.03,0,5.5,2.47,5.5,5.5v24 c0,3.03-2.47,5.5-5.5,5.5H16z"></path> <path class="ti_redKey" d="M50,303H16c-1.66,0-3-1.34-3-3v-24c0-1.66,1.34-3,3-3h34c1.66,0,3,1.34,3,3v24C53,301.66,51.66,303,50,303z"></path> <g> <path class="ti_redKey_art_primary" d="M16.7,286.47c0.21-0.59,0.51-1.11,0.9-1.55s0.87-0.79,1.44-1.04 c0.57-0.25,1.21-0.38,1.92-0.38c0.72,0,1.36,0.13,1.92,0.38c0.56,0.25,1.04,0.6,1.43,1.04s0.69,0.96,0.9,1.55 s0.31,1.24,0.31,1.93c0,0.68-0.1,1.31-0.31,1.89s-0.51,1.09-0.9,1.53c-0.39,0.43-0.87,0.77-1.43,1.02 c-0.56,0.25-1.21,0.37-1.92,0.37c-0.71,0-1.35-0.12-1.92-0.37c-0.57-0.25-1.05-0.59-1.44-1.02c-0.39-0.43-0.69-0.94-0.9-1.53 s-0.31-1.21-0.31-1.89C16.39,287.7,16.5,287.06,16.7,286.47z M18.57,289.53c0.09,0.37,0.24,0.7,0.44,1 c0.2,0.29,0.46,0.53,0.78,0.71c0.32,0.18,0.71,0.27,1.17,0.27c0.46,0,0.85-0.09,1.17-0.27c0.32-0.18,0.58-0.41,0.78-0.71 s0.34-0.63,0.44-1c0.09-0.37,0.14-0.75,0.14-1.14c0-0.41-0.05-0.8-0.14-1.18c-0.09-0.38-0.24-0.72-0.44-1.02 s-0.46-0.54-0.78-0.71c-0.32-0.18-0.71-0.27-1.17-0.27c-0.46,0-0.85,0.09-1.17,0.27c-0.32,0.18-0.58,0.42-0.78,0.71 c-0.2,0.3-0.34,0.64-0.44,1.02c-0.09,0.38-0.14,0.78-0.14,1.18C18.43,288.79,18.48,289.17,18.57,289.53z M28.94,283.72l3.87,6.23h0.03v-6.23h1.91V293h-2.04l-3.86-6.21h-0.03V293h-1.91v-9.28 H28.94z M40.61,283.5l-3.63,9.71h-1.47l3.61-9.71H40.61z M47.32,286.19c-0.12-0.2-0.27-0.37-0.45-0.51c-0.18-0.15-0.39-0.26-0.62-0.34 c-0.23-0.08-0.47-0.12-0.72-0.12c-0.46,0-0.85,0.09-1.17,0.27c-0.32,0.18-0.58,0.42-0.78,0.71c-0.2,0.3-0.34,0.64-0.44,1.02 c-0.09,0.38-0.14,0.78-0.14,1.18c0,0.39,0.04,0.77,0.14,1.14c0.09,0.37,0.24,0.7,0.44,1c0.2,0.29,0.46,0.53,0.78,0.71 c0.32,0.18,0.71,0.27,1.17,0.27c0.62,0,1.11-0.19,1.46-0.57c0.35-0.38,0.57-0.88,0.64-1.51h1.98c-0.05,0.58-0.19,1.11-0.4,1.57 c-0.22,0.47-0.5,0.87-0.86,1.2c-0.36,0.33-0.77,0.58-1.25,0.75c-0.48,0.17-1,0.26-1.57,0.26c-0.71,0-1.35-0.12-1.92-0.37 c-0.57-0.25-1.05-0.59-1.44-1.02c-0.39-0.43-0.69-0.94-0.9-1.53s-0.31-1.21-0.31-1.89c0-0.69,0.1-1.34,0.31-1.93 s0.51-1.11,0.9-1.55s0.87-0.79,1.44-1.04c0.57-0.25,1.21-0.38,1.92-0.38c0.51,0,1,0.07,1.45,0.22s0.86,0.36,1.22,0.64 c0.36,0.28,0.66,0.63,0.89,1.05c0.23,0.42,0.38,0.89,0.44,1.43h-1.98C47.52,286.6,47.44,286.39,47.32,286.19z"></path> </g> </g> <g id="TI108_KEY_0" class="TI108_KEY_0"> <rect x="57" y="269" class="ti_key_background_padding" width="48" height="38"></rect> <path d="M64,305.5c-3.03,0-5.5-2.47-5.5-5.5v-24c0-3.03,2.47-5.5,5.5-5.5h34c3.03,0,5.5,2.47,5.5,5.5v24 c0,3.03-2.47,5.5-5.5,5.5H64z"></path> <path class="ti_numpadKey" d="M98,303H64c-1.66,0-3-1.34-3-3v-24c0-1.66,1.34-3,3-3h34c1.66,0,3,1.34,3,3v24C101,301.66,99.66,303,98,303z"></path> <g> <path class="ti_numpadKey_art_primary" d="M76.74,285.56c0.25-0.83,0.58-1.5,1-2.01s0.91-0.86,1.47-1.08 c0.56-0.22,1.15-0.32,1.77-0.32c0.64,0,1.23,0.11,1.79,0.32c0.56,0.22,1.05,0.58,1.48,1.08s0.76,1.17,1.01,2.01 c0.25,0.83,0.37,1.86,0.37,3.09c0,1.26-0.12,2.31-0.37,3.16c-0.25,0.85-0.58,1.52-1.01,2.03s-0.92,0.86-1.48,1.08 c-0.56,0.22-1.16,0.32-1.79,0.32c-0.62,0-1.21-0.11-1.77-0.32c-0.56-0.22-1.05-0.58-1.47-1.08s-0.75-1.18-1-2.03 c-0.25-0.85-0.37-1.9-0.37-3.16C76.37,287.42,76.5,286.39,76.74,285.56z M78.97,289.95c0.02,0.51,0.1,1,0.23,1.48 c0.13,0.47,0.33,0.88,0.6,1.21c0.28,0.34,0.67,0.5,1.19,0.5c0.53,0,0.93-0.17,1.21-0.5c0.28-0.33,0.49-0.74,0.61-1.21 c0.13-0.47,0.2-0.97,0.22-1.48c0.02-0.51,0.04-0.95,0.04-1.3c0-0.22,0-0.48-0.01-0.78c-0.01-0.31-0.03-0.62-0.07-0.95 s-0.1-0.64-0.18-0.96c-0.08-0.32-0.2-0.6-0.35-0.86s-0.35-0.46-0.59-0.61c-0.24-0.16-0.53-0.23-0.88-0.23 c-0.35,0-0.64,0.08-0.87,0.23c-0.23,0.16-0.43,0.36-0.58,0.61c-0.15,0.25-0.27,0.54-0.35,0.86s-0.14,0.64-0.18,0.96 s-0.06,0.64-0.06,0.95c-0.01,0.31-0.01,0.57-0.01,0.78C78.93,289,78.94,289.44,78.97,289.95z"></path> </g> </g> <g id="TI108_KEY_DECIMAL" class="TI108_KEY_DECIMAL"> <rect x="105" y="269" class="ti_key_background_padding" width="48" height="38"></rect> <path d="M112,305.5c-3.03,0-5.5-2.47-5.5-5.5v-24c0-3.03,2.47-5.5,5.5-5.5h34c3.03,0,5.5,2.47,5.5,5.5v24 c0,3.03-2.47,5.5-5.5,5.5H112z"></path> <path class="ti_numpadKey" d="M146,303h-34c-1.66,0-3-1.34-3-3v-24c0-1.66,1.34-3,3-3h34c1.66,0,3,1.34,3,3v24 C149,301.66,147.66,303,146,303z"></path> <g> <path class="ti_numpadKey_art_primary" d="M130.4,292.23V295h-2.83v-2.77H130.4z"></path> </g> </g> <g id="TI108_KEY_EQUALS" class="TI108_KEY_EQUALS"> <rect x="153" y="231" class="ti_key_background_padding" width="48" height="76"></rect> <path d="M160,305.5c-3.03,0-5.5-2.47-5.5-5.5v-62c0-3.03,2.47-5.5,5.5-5.5h34c3.03,0,5.5,2.47,5.5,5.5v62 c0,3.03-2.47,5.5-5.5,5.5H160z"></path> <path class="ti_redKey" d="M194,303h-34c-1.66,0-3-1.34-3-3v-62c0-1.66,1.34-3,3-3h34c1.66,0,3,1.34,3,3v62 C197,301.66,195.66,303,194,303z"></path> <g> <path class="ti_redKey_art_primary" d="M171,254h12v-2h-12V254z M171,247v2h12v-2H171z"></path> </g> </g> </svg>